<svg width="554" height="111" viewBox="0 0 554 111" fill="none" xmlns="http://www.w3.org/2000/svg">
<path d="M6.95 35.2C11.6 45.85 21.5 55.3 17.75 67.6C17.6 67.6 17.6 67.9 17.6 68.05C16.1 75.1 9.65 81.7 8.45 88.75C7.85 94.15 7.85 99.85 12.05 104.35C19.1 110.95 32 110.95 37.25 102.4C37.55 101.95 37.55 101.65 37.7 101.35C40.55 92.8 35.75 85 37.1 76.6C37.1 76.3 37.1 76 37.25 75.85C42.05 61.15 63.05 74.05 75.35 74.05C85.55 73.75 94.85 64 89.45 53.05C82.85 39.55 55.4 53.05 44.15 46C39.2 43 41.45 34.6 47.6 34.75C47.9 34.75 48.2 35.05 48.65 35.05C104.15 51.1 103.7 8.65 78.8 6.24999H77.45C63.65 8.04999 61.1 19.75 43.7 16H43.4C37.1 15.1 31.85 10.75 26.3 7.59999C26.15 7.44999 25.85 7.44999 25.7 7.15C10.85 0.699991 0.8 23.35 6.95 35.2ZM120.741 104.65C125.091 107.8 130.041 110.05 135.741 108.25C137.391 107.8 138.891 106.9 140.391 106C142.941 104.65 145.341 103 147.891 101.65C150.291 100.45 152.841 99.7 155.691 100.3C159.741 101.05 163.641 102.55 166.941 104.95C173.241 109.45 179.841 109.75 186.741 107.35C192.591 105.4 196.491 101.35 197.991 95.65C199.041 92.05 199.491 88.45 200.091 84.85C199.791 81.1 199.341 78.55 197.841 76.3C193.341 68.5 184.791 67.6 179.241 70.75C176.241 72.55 173.541 74.95 170.691 77.05C164.841 81.4 158.541 83.65 151.341 82C148.941 81.4 146.541 80.35 144.291 79.3C138.141 75.7 134.391 70.6 133.491 63.7C132.441 55.9 133.341 48.4 136.341 41.2C137.841 37.45 138.891 33.7 140.091 29.8C140.991 26.05 140.991 22.3 140.391 18.55C139.791 16 138.591 14.05 136.191 12.85C132.441 10.6 128.391 10.45 124.041 10.9C115.941 11.65 111.741 18.25 110.241 23.35C110.091 24.55 109.941 25.6 110.091 26.8C110.841 34.45 112.341 41.8 114.891 49C116.691 53.5 117.291 58.15 117.141 62.8C116.991 65.05 116.691 67.15 115.941 69.25C114.741 72.25 113.241 75.1 112.041 77.95C110.691 81.4 109.941 84.7 110.541 88.3C112.041 95.05 115.191 100.6 120.741 104.65ZM307.47 29.8C306.72 29.2 305.67 28.6 304.92 28C301.17 25.45 297.27 23.05 294.42 19.75C290.52 15.25 285.72 12.4 279.72 11.35C277.62 11.05 275.52 11.2 272.97 11.05C270.42 11.2 267.42 11.5 264.57 11.65C256.62 11.95 248.97 13.45 241.62 16.9C236.37 19.45 231.27 21.85 226.77 25.9C220.62 31.3 220.62 38.8 224.07 45.4C225.42 47.65 226.62 50.05 227.67 52.45C229.17 57.1 228.42 61.45 225.12 65.2C224.52 65.8 224.07 66.7 223.62 67.45C222.12 70.45 221.97 73.75 221.82 77.2C221.82 80.35 222.87 83.35 224.52 86.05C226.92 90.25 231.12 92.5 235.32 94.45C239.37 96.1 242.52 98.95 245.52 102.4C247.02 103.75 248.22 105.25 249.57 106.75C251.07 108.55 252.87 109.15 255.27 109C256.62 108.85 258.12 108.7 259.47 108.4C262.32 107.5 264.87 106.3 267.87 105.4C270.12 104.65 272.37 103.9 274.62 103.75C278.67 103.45 282.72 103.3 286.77 103.45C292.77 103.6 297.27 101.05 301.17 96.85C302.97 95.05 304.32 93.1 305.52 91C307.32 88 307.92 84.7 307.02 81.25C306.27 78.55 305.67 75.85 304.92 73.3C303.27 66.7 303.42 60.4 306.87 54.4C307.92 52.45 309.12 50.65 310.17 48.7C310.47 48.1 310.92 47.5 311.07 46.9C311.67 43 311.97 39.4 311.22 35.65C310.77 33.4 309.42 31.3 307.47 29.8ZM281.67 57.85C281.22 60.1 280.32 62.2 279.87 64.6C279.27 67 278.67 69.55 278.37 72.1C278.22 73.3 278.52 74.65 278.97 75.85C279.72 77.95 279.87 80.05 279.12 82.15C278.07 85.15 276.12 87.4 273.12 87.55C269.82 87.85 266.97 86.5 264.87 83.65C264.27 82.45 263.67 80.8 263.67 79.6C263.67 73.6 260.22 69.25 256.62 65.05C255.42 63.7 254.22 61.9 253.17 60.4C251.37 58 250.47 55.3 250.47 52.15C251.22 49.15 251.52 46 252.57 42.85C254.22 38.5 257.82 35.8 262.47 34.9C268.47 33.55 275.82 35.65 279.57 42.25C282.27 47.35 282.87 52.45 281.67 57.85ZM417.539 29.8C416.789 29.2 415.739 28.6 414.989 28C411.239 25.45 407.339 23.05 404.489 19.75C400.589 15.25 395.789 12.4 389.789 11.35C387.689 11.05 385.589 11.2 383.039 11.05C380.489 11.2 377.489 11.5 374.639 11.65C366.689 11.95 359.039 13.45 351.689 16.9C346.439 19.45 341.339 21.85 336.839 25.9C330.689 31.3 330.689 38.8 334.139 45.4C335.489 47.65 336.689 50.05 337.739 52.45C339.239 57.1 338.489 61.45 335.189 65.2C334.589 65.8 334.139 66.7 333.689 67.45C332.189 70.45 332.039 73.75 331.889 77.2C331.889 80.35 332.939 83.35 334.589 86.05C336.989 90.25 341.189 92.5 345.389 94.45C349.439 96.1 352.589 98.95 355.589 102.4C357.089 103.75 358.289 105.25 359.639 106.75C361.139 108.55 362.939 109.15 365.339 109C366.689 108.85 368.189 108.7 369.539 108.4C372.389 107.5 374.939 106.3 377.939 105.4C380.189 104.65 382.439 103.9 384.689 103.75C388.739 103.45 392.789 103.3 396.839 103.45C402.839 103.6 407.339 101.05 411.239 96.85C413.039 95.05 414.389 93.1 415.589 91C417.389 88 417.989 84.7 417.089 81.25C416.339 78.55 415.739 75.85 414.989 73.3C413.339 66.7 413.489 60.4 416.939 54.4C417.989 52.45 419.189 50.65 420.239 48.7C420.539 48.1 420.989 47.5 421.139 46.9C421.739 43 422.039 39.4 421.289 35.65C420.839 33.4 419.489 31.3 417.539 29.8ZM391.739 57.85C391.289 60.1 390.389 62.2 389.939 64.6C389.339 67 388.739 69.55 388.439 72.1C388.289 73.3 388.589 74.65 389.039 75.85C389.789 77.95 389.939 80.05 389.189 82.15C388.139 85.15 386.189 87.4 383.189 87.55C379.889 87.85 377.039 86.5 374.939 83.65C374.339 82.45 373.739 80.8 373.739 79.6C373.739 73.6 370.289 69.25 366.689 65.05C365.489 63.7 364.289 61.9 363.239 60.4C361.439 58 360.539 55.3 360.539 52.15C361.289 49.15 361.589 46 362.639 42.85C364.289 38.5 367.889 35.8 372.539 34.9C378.539 33.55 385.889 35.65 389.639 42.25C392.339 47.35 392.939 52.45 391.739 57.85ZM499.857 75.85C495.957 77.35 492.657 79.3 489.657 82.15C486.807 84.85 482.757 85.75 479.007 85.3C472.557 84.55 466.407 82.6 462.507 77.2C462.207 76.75 461.907 76.45 461.607 76.15C459.807 74.05 457.407 72.55 454.707 71.65C449.157 69.7 444.507 71.05 441.657 76.15C439.407 80.5 438.957 85.45 440.757 90.25C443.607 96.85 448.107 102.4 454.857 106.15C459.207 108.55 463.707 109.3 468.957 109C471.957 107.35 475.257 106.3 478.257 105.25C482.457 103.45 487.107 103.15 491.607 104.2C494.007 104.8 496.257 105.55 498.507 106.15C501.657 107.05 504.807 107.8 508.107 108.25C509.757 108.55 511.407 108.55 513.207 108.4C518.307 107.95 521.907 104.5 522.957 99.85C524.007 96.25 523.557 93.25 522.057 89.95C519.057 82.9 519.207 75.85 522.657 68.8C524.307 66.25 525.507 63.25 527.007 60.55C528.807 57.4 529.857 53.95 529.557 50.2C529.407 48.4 529.407 46.6 529.257 44.95C528.807 41.05 527.007 37.9 524.907 34.75C522.957 31.75 521.457 28.9 520.257 25.75C518.457 19.75 514.257 15.25 508.407 13.15C505.107 12.1 501.807 11.5 498.507 10.9C491.307 9.69999 484.407 10.9 478.557 15.25C473.907 18.85 470.007 22.75 466.407 27.4C463.707 31 460.407 33.7 456.057 35.5C453.657 36.55 451.557 37.75 449.157 38.8C444.807 41.35 442.257 44.8 441.657 49.9C441.057 55 442.557 59.35 447.207 62.05C449.157 63.4 451.707 64.6 453.807 65.65C457.707 67 461.307 69.1 464.457 72.1C466.407 74.2 469.107 75.7 471.807 76.6C476.307 78.1 480.507 77.35 484.707 76.15C488.907 74.95 492.057 72.4 493.707 68.5C494.607 66.4 495.507 63.85 496.107 61.45C496.707 59.65 497.607 58 499.407 56.65C501.807 54.7 505.257 55.3 506.757 58C508.557 60.55 509.157 63.4 508.557 66.55C507.507 70.9 504.507 74.2 499.857 75.85ZM505.407 35.65C504.807 37 504.057 38.35 502.857 38.8C500.757 40.3 498.207 41.65 495.657 42.4C491.457 43.75 488.457 44.95 484.707 47.35C483.207 48.1 482.457 49 480.657 49.6C479.607 49.75 478.857 49.6 478.557 49.6C476.007 49.3 473.757 47.5 473.607 45.7C473.307 44.2 474.957 42.1 477.207 41.35C479.007 40.45 480.957 40.15 482.757 39.85C484.557 39.55 486.357 39.4 488.007 39.25C492.057 38.8 495.657 37.75 498.807 35.05C499.857 34.3 500.757 33.7 501.657 32.95C502.557 32.35 503.607 32.35 504.507 33.25C505.257 33.85 505.857 34.75 505.407 35.65ZM548.214 95.32C548.494 95.32 548.854 95.32 549.174 95.44C549.734 95.48 550.174 95.72 550.454 96.2C550.774 96.64 550.934 97.16 551.054 97.68C551.094 98.08 551.174 98.4 551.214 98.68C551.294 99.2 551.614 99.68 552.014 100.08C552.134 100.16 552.294 100.36 552.374 100.44C553.374 101.48 553.374 103.04 552.374 104.16C552.294 104.32 552.134 104.4 552.014 104.56C551.574 104.96 551.374 105.48 551.534 106.12C551.574 106.24 551.614 106.4 551.614 106.52C551.774 107.08 551.734 107.68 551.374 108.12C551.174 108.6 550.734 108.84 550.214 108.88C549.734 109.04 549.254 108.92 548.814 108.8C548.654 108.72 548.414 108.64 548.214 108.6C547.574 108.32 547.014 108.36 546.414 108.72C545.494 109.24 544.494 109.16 543.614 108.6C542.694 108.12 542.214 107.16 542.414 106.12C542.454 105.84 542.494 105.52 542.614 105.24C542.694 104.84 542.654 104.44 542.334 104.08C542.094 103.84 541.854 103.56 541.574 103.32C540.574 102.08 540.774 100.4 542.094 99.56C542.494 99.24 542.894 99.08 543.254 98.88C543.854 98.6 544.254 98.2 544.534 97.6C545.094 96.12 546.294 95.44 547.854 95.32C547.934 95.32 548.134 95.32 548.214 95.32Z" fill="white"/>
</svg>
